<?xml version="1.0" encoding="UTF-8"?>
<svg xmlns="http://www.w3.org/2000/svg" xmlns:xlink="http://www.w3.org/1999/xlink" width="32pt" height="32pt" viewBox="0 0 32 32" version="1.1">
<g id="surface1">
<path style=" stroke:none;fill-rule:nonzero;fill:rgb(0%,0%,0%);fill-opacity:1;" d="M 18.648438 7.742188 C 17.824219 7.871094 16.894531 8.3125 16.203125 8.902344 L 16 9.082031 L 15.769531 8.929688 C 15.640625 8.839844 15.5 8.769531 15.457031 8.769531 C 15.410156 8.769531 15.335938 8.71875 15.289062 8.660156 C 15.210938 8.5625 15.210938 8.558594 15.316406 8.59375 C 15.441406 8.640625 15.460938 8.574219 15.347656 8.460938 C 15.308594 8.421875 15.289062 8.371094 15.308594 8.34375 C 15.359375 8.292969 15.617188 8.433594 15.617188 8.511719 C 15.617188 8.550781 15.679688 8.574219 15.757812 8.574219 C 15.890625 8.574219 15.890625 8.574219 15.769531 8.441406 C 15.589844 8.242188 15.226562 8.078125 14.867188 8.027344 C 14.324219 7.957031 13.453125 8.242188 12.664062 8.75 C 12.019531 9.171875 11.832031 9.636719 12.097656 10.214844 C 12.308594 10.679688 12.414062 11.007812 12.363281 11.007812 C 12.339844 11.007812 12.21875 10.980469 12.097656 10.945312 C 11.328125 10.726562 10.464844 10.753906 9.761719 11.015625 C 8.894531 11.335938 7.769531 12.292969 7.378906 13.023438 C 6.980469 13.777344 6.96875 14.453125 7.320312 15.199219 L 7.476562 15.519531 L 7.488281 15.199219 L 7.496094 14.878906 L 7.648438 15.359375 C 7.738281 15.621094 7.859375 15.902344 7.921875 15.980469 C 8.03125 16.128906 8.03125 16.121094 8.039062 15.789062 C 8.058594 15.027344 8.070312 14.945312 8.132812 15.039062 C 8.1875 15.125 8.199219 15.125 8.257812 15.039062 C 8.289062 14.988281 8.308594 14.90625 8.289062 14.859375 C 8.269531 14.808594 8.238281 14.695312 8.21875 14.605469 L 8.179688 14.433594 L 8.308594 14.59375 L 8.433594 14.746094 L 8.78125 14.425781 C 8.964844 14.253906 9.230469 14.042969 9.363281 13.957031 C 9.503906 13.875 9.601562 13.765625 9.601562 13.691406 C 9.601562 13.625 9.632812 13.566406 9.664062 13.566406 C 9.703125 13.566406 9.726562 13.476562 9.726562 13.375 C 9.726562 13.265625 9.761719 13.183594 9.792969 13.183594 C 9.832031 13.183594 9.855469 13.246094 9.855469 13.324219 C 9.855469 13.621094 9.9375 13.652344 10.304688 13.523438 C 10.503906 13.453125 10.664062 13.355469 10.695312 13.28125 C 10.734375 13.175781 10.746094 13.175781 10.746094 13.261719 C 10.753906 13.351562 10.785156 13.355469 10.976562 13.292969 C 11.15625 13.242188 11.199219 13.191406 11.199219 13.0625 C 11.207031 12.902344 11.207031 12.902344 11.28125 13.03125 C 11.339844 13.125 11.398438 13.152344 11.519531 13.121094 C 11.648438 13.089844 11.6875 13.035156 11.699219 12.863281 C 11.726562 12.613281 11.839844 12.433594 11.839844 12.644531 C 11.839844 12.710938 11.859375 12.824219 11.878906 12.894531 C 11.902344 13 11.859375 13.050781 11.671875 13.144531 C 10.980469 13.472656 10.203125 14.132812 9.753906 14.753906 C 9.160156 15.597656 8.953125 16.257812 8.953125 17.414062 C 8.953125 18.347656 9.09375 19.109375 9.414062 19.878906 C 9.664062 20.472656 10.324219 21.503906 10.363281 21.335938 C 10.375 21.253906 10.4375 21.292969 10.628906 21.511719 L 10.875 21.792969 L 10.878906 21.390625 C 10.878906 21.09375 10.847656 20.933594 10.765625 20.8125 C 10.539062 20.492188 10.535156 20.449219 10.714844 20.59375 C 10.949219 20.78125 11.007812 20.773438 11.015625 20.558594 C 11.015625 20.460938 11.085938 20.121094 11.160156 19.808594 L 11.316406 19.230469 L 11.1875 19.019531 C 11.054688 18.804688 11.089844 18.753906 11.269531 18.917969 C 11.371094 19.007812 11.386719 19.007812 11.425781 18.886719 C 11.449219 18.804688 11.410156 18.675781 11.300781 18.515625 C 11.105469 18.226562 11.128906 18.175781 11.371094 18.367188 L 11.550781 18.503906 L 11.609375 18.355469 C 11.980469 17.433594 12.523438 16.433594 13.089844 15.65625 L 13.445312 15.148438 L 13.285156 14.769531 C 13.0625 14.253906 13.074219 14.195312 13.351562 14.546875 C 13.476562 14.714844 13.621094 14.847656 13.664062 14.847656 C 13.707031 14.847656 13.875 14.699219 14.035156 14.515625 L 14.324219 14.183594 L 14.234375 13.933594 C 14.097656 13.546875 14.125 13.523438 14.355469 13.792969 L 14.574219 14.042969 L 14.824219 13.835938 C 14.957031 13.722656 15.105469 13.632812 15.148438 13.632812 C 15.257812 13.632812 15.6875 14.214844 15.988281 14.785156 C 16.542969 15.820312 16.933594 17.214844 17.113281 18.757812 C 17.460938 21.746094 17.164062 24.011719 16.28125 25.214844 C 16.097656 25.472656 16.027344 25.613281 16.078125 25.632812 C 16.492188 25.773438 17.574219 25.832031 18.015625 25.734375 C 18.1875 25.695312 18.214844 25.664062 18.285156 25.3125 C 18.507812 24.1875 18.539062 21.050781 18.34375 19.679688 C 18.023438 17.511719 17.332031 15.570312 16.351562 14.066406 L 15.929688 13.421875 L 16.632812 13.453125 C 17.402344 13.484375 17.40625 13.476562 17.40625 13.121094 C 17.40625 12.804688 17.515625 12.84375 17.601562 13.183594 C 17.65625 13.425781 17.707031 13.511719 17.816406 13.535156 C 18.664062 13.703125 19.726562 13.894531 19.738281 13.882812 C 19.75 13.867188 19.789062 13.765625 19.828125 13.664062 L 19.890625 13.472656 L 19.898438 13.707031 C 19.902344 13.90625 19.9375 13.964844 20.089844 14.042969 C 20.261719 14.136719 20.273438 14.132812 20.3125 13.996094 C 20.332031 13.921875 20.351562 13.671875 20.351562 13.441406 C 20.359375 12.921875 20.433594 13.023438 20.5625 13.722656 C 20.613281 13.996094 20.683594 14.238281 20.710938 14.265625 C 20.742188 14.292969 21.03125 14.40625 21.34375 14.523438 C 21.664062 14.644531 22.238281 14.898438 22.625 15.097656 C 23.015625 15.296875 23.347656 15.460938 23.367188 15.476562 C 23.386719 15.480469 23.441406 15.410156 23.496094 15.316406 L 23.585938 15.148438 L 23.617188 15.425781 C 23.667969 15.871094 23.789062 15.8125 23.847656 15.316406 C 23.898438 14.796875 23.988281 14.917969 23.992188 15.519531 L 24 15.910156 L 24.480469 16.382812 L 24.960938 16.859375 L 24.960938 16.410156 C 24.960938 15.1875 24.460938 13.863281 23.589844 12.753906 C 22.835938 11.800781 21.976562 11.226562 20.894531 10.9375 C 20.019531 10.699219 18.226562 10.757812 17.253906 11.054688 C 17.191406 11.070312 17.152344 11.058594 17.171875 11.027344 C 17.191406 10.996094 17.171875 10.894531 17.121094 10.796875 C 17.042969 10.648438 17.050781 10.636719 17.140625 10.667969 C 17.203125 10.6875 17.285156 10.734375 17.324219 10.769531 C 17.382812 10.808594 17.582031 10.757812 17.9375 10.605469 C 18.539062 10.355469 19.160156 10.1875 19.761719 10.125 L 20.171875 10.078125 L 19.972656 9.804688 C 19.820312 9.601562 19.800781 9.535156 19.878906 9.535156 C 19.980469 9.535156 20.28125 9.804688 20.390625 9.992188 C 20.46875 10.125 21.375 10.222656 21.375 10.097656 C 21.382812 10.042969 21.40625 10.046875 21.460938 10.117188 C 21.503906 10.175781 21.601562 10.238281 21.683594 10.265625 C 21.8125 10.308594 21.816406 10.296875 21.761719 10.152344 C 21.671875 9.90625 21.804688 9.9375 21.925781 10.1875 C 21.984375 10.304688 22.15625 10.496094 22.316406 10.617188 C 22.636719 10.855469 22.636719 10.835938 22.425781 10.308594 C 22.308594 10.042969 22.316406 10.015625 22.433594 10.113281 C 22.597656 10.253906 22.546875 10.035156 22.273438 9.492188 C 21.863281 8.664062 21.175781 8.097656 20.289062 7.847656 C 19.847656 7.726562 19.070312 7.671875 18.648438 7.742188 Z M 18.648438 7.742188 "/>
</g>
</svg>
